<svg xmlns="http://www.w3.org/2000/svg" xml:space="preserve" width="800" height="800" data-version="2">
    <path fill="#FF6523" d="M457.702 575.386c-6.794 0-12.308 5.514-12.308 12.308v73.847c0 6.794 5.514 12.308 12.308 12.308s12.308-5.514 12.308-12.308v-73.847c0-6.794-5.514-12.308-12.308-12.308m-80.001 0c-6.793 0-12.307 5.514-12.307 12.308v73.847c0 6.794 5.514 12.308 12.307 12.308 6.794 0 12.308-5.514 12.308-12.308v-73.847c0-6.794-5.514-12.308-12.308-12.308m30.769-455.388a6.152 6.152 0 0 0-6.153 6.154v55.385a6.152 6.152 0 0 0 6.154 6.154 6.152 6.152 0 0 0 6.154-6.154v-55.385a6.152 6.152 0 0 0-6.154-6.154M260.777 316.923h-49.23a6.152 6.152 0 0 0-6.155 6.153 6.152 6.152 0 0 0 6.154 6.154h49.231a6.152 6.152 0 0 0 6.154-6.154 6.152 6.152 0 0 0-6.154-6.153"/>
    <path fill="#FF6523" d="M266.931 323.076h-36.923a6.152 6.152 0 0 0-6.154 6.154 6.152 6.152 0 0 0 6.154 6.154h36.923a6.152 6.152 0 0 0 6.154-6.154 6.152 6.152 0 0 0-6.154-6.154M390.01 138.46a6.152 6.152 0 0 0-6.155 6.153v36.924a6.152 6.152 0 0 0 6.154 6.154 6.152 6.152 0 0 0 6.154-6.154v-36.924a6.152 6.152 0 0 0-6.154-6.154"/>
    <path fill="#FF6523" d="M569.992 497.909c-12.732-14.37-18-38.942-23.15-65.656.055-1.576.122-3.145.122-4.733V323.243c0-79.884-64.757-144.648-144.647-144.648-79.89 0-144.647 64.764-144.647 144.648V427.52c0 79.884 64.757 144.648 144.647 144.648 1.139 0 2.265-.062 3.397-.086 80.271 4.203 137.663-52.936 164.278-74.173"/>
    <path fill="#FF6523" d="m504.312 463.318-43.422-55.822c-13.317-17.114-36.751-21.41-50.542-7.287l-16.646 17.059c-13.791 14.13-8.924 37.447 8.51 50.345l56.869 42.05c9.218 6.812 23.015 4.75 31.6-4.043l10.363-10.616c8.585-8.788 10.314-22.634 3.268-31.686"/>
    <circle r="4" fill="#FF6523" transform="matrix(6.1539 0 0 6.1539 346.932 304.615)"/>
</svg>
