<svg xmlns="http://www.w3.org/2000/svg" version="1.1" xmlns:xlink="http://www.w3.org/1999/xlink" width="2000" height="672" viewBox="0 0 2000 672"><svg xml:space="preserve" width="2000" height="672" data-version="2" data-id="lg_QWK6Bsn7Yf6YGD48zg" viewBox="0 0 566 190" x="0" y="0">
    <path fill="#ffffff" d="M250.68 62.46v-9.71h19.55v9.71h-6.69l-37.28 31.39 34.87 34.36h9.1v9.66h-22.91v-9.66l-33.81-33.8Zm-56.26-9.71h27.63v9.71h-8.65v65.75h8.53v9.66h-27.62v-9.66h8.08V62.46h-7.97Z"></path>
    <rect width="75.92" height="85.12" x="-37.96" y="-42.56" fill="none" rx="0" ry="0" transform="matrix(1 0 0 1 232.77 95.81)"></rect>
    <path fill="#ffffff" d="M314.92 79.7h18.76v48.51h6.45v9.66h-16.95v-5.39q-3.93 3.03-8.57 4.72-4.63 1.68-9.91 1.68-4.38 0-7.94-1.26-3.57-1.26-6.07-3.93-2.5-2.67-3.84-6.77-1.35-4.1-1.35-9.77V89.36h-7.86V79.7h18.75v36.22q0 6.68 3.09 10.1 3.09 3.43 8.87 3.43 3.43 0 7.22-1.24 3.79-1.23 7.16-3.42V89.36h-7.81Zm-26.05-18.19q0-1.46.59-2.78.59-1.32 1.57-2.31.98-.98 2.3-1.57 1.32-.59 2.78-.59 1.41 0 2.7.59 1.29.59 2.24 1.57.96.99 1.52 2.31t.56 2.78q0 1.51-.56 2.86-.56 1.35-1.52 2.39-.95 1.03-2.24 1.62-1.29.59-2.7.59-1.46 0-2.78-.59-1.32-.59-2.3-1.62-.98-1.04-1.57-2.39-.59-1.35-.59-2.86m25.77 0q0-1.46.59-2.78.59-1.32 1.57-2.31.99-.98 2.31-1.57 1.32-.59 2.78-.59 1.4 0 2.66.59 1.27.59 2.25 1.57.98.99 1.54 2.31t.56 2.78q0 1.51-.56 2.86-.56 1.35-1.54 2.39-.98 1.03-2.25 1.62-1.26.59-2.66.59-1.46 0-2.78-.59-1.32-.59-2.31-1.62-.98-1.04-1.57-2.39-.59-1.35-.59-2.86"></path>
    <rect width="62.49" height="84.62" x="-31.245" y="-42.31" fill="none" rx="0" ry="0" transform="matrix(1 0 0 1 309.385 97.07)"></rect>
    <path fill="#ffffff" d="M355.24 50.5h20.5v9.66h-.12v43.46h10.11l13.81-14.26h-3.48V79.7h22.07v9.66h-7.36l-17.68 18.25 19.31 20.6h7.02v9.66h-12.3l-23.8-26h-7.7v16.34h4.83v9.66h-24.87v-9.66h9.54V60.16h-9.88Z"></path>
    <rect width="64.18" height="87.37" x="-32.09" y="-43.685" fill="none" rx="0" ry="0" transform="matrix(1 0 0 1 387.83 94.685)"></rect>
    <path fill="#ffffff" d="M437.78 110.13q0 2.47.37 4.52.36 2.05 1.04 3.91 2.08 5.61 6.65 8.45 4.58 2.83 10.36 2.83 4.55 0 8.85-1.26 4.29-1.26 9.01-3.96l4.21 7.13q-5.73 3.93-11.51 5.84-5.79 1.91-12.02 1.91-5.89 0-10.92-1.96-5.03-1.97-8.65-5.84-3.62-3.88-5.67-9.66-2.05-5.79-2.05-13.48 0-6.23 1.74-11.76 1.74-5.53 5.2-9.66 3.45-4.13 8.56-6.54 5.11-2.42 11.9-2.42 6.57 0 10.98 2 4.41 1.99 7.19 5.27 2.78 3.29 4.21 7.5 1.43 4.21 1.99 8.59.28 2.14.37 4.33.08 2.19.08 4.26Zm16.34-23.19q-3.65 0-6.37 1.04t-4.63 2.98q-1.91 1.93-3.06 4.74-1.15 2.81-1.71 6.29h30.15q-.23-3.26-1.04-6.01t-2.5-4.77q-1.68-2.02-4.32-3.14-2.64-1.13-6.52-1.13"></path>
    <rect width="52.22" height="61.32" x="-26.11" y="-30.66" fill="none" rx="0" ry="0" transform="matrix(1 0 0 1 454.06 109.34)"></rect>
    <path fill="#ffffff" d="M532.18 128.21h8.19v-26.56q0-6.68-3.39-10.13-3.4-3.45-9.75-3.45-3.65 0-7.35 1.74-3.71 1.74-7.02 4.32v34.08h8.2v9.66h-27.18v-9.66h8.09V89.36h-8.09V79.7h18.53v6.85h.11q1.86-1.63 3.96-3.09 2.11-1.46 4.41-2.53 2.3-1.06 4.8-1.68 2.5-.62 5.25-.62 4.66 0 8.42 1.29 3.77 1.29 6.4 3.93 2.64 2.64 4.08 6.77 1.43 4.13 1.43 9.74v27.85h8.08v9.66h-27.17Z"></path>
    <rect width="65.47" height="59.24" x="-32.735" y="-29.62" fill="none" rx="0" ry="0" transform="matrix(1 0 0 1 527.115 108.75)"></rect>
    <path fill="#ffffff" d="M89.23 153.097a4.078 4.078 0 0 0-4.077 4.077v24.462a4.078 4.078 0 0 0 4.077 4.077 4.078 4.078 0 0 0 4.077-4.077v-24.462a4.078 4.078 0 0 0-4.077-4.077m-26.5 0a4.078 4.078 0 0 0-4.077 4.077v24.462a4.078 4.078 0 0 0 4.077 4.077 4.078 4.078 0 0 0 4.077-4.077v-24.462a4.078 4.078 0 0 0-4.077-4.077M72.922 2.248a2.038 2.038 0 0 0-2.038 2.039v18.346a2.038 2.038 0 1 0 4.077 0V4.287a2.038 2.038 0 0 0-2.039-2.039M23.998 67.48H7.69a2.038 2.038 0 1 0 0 4.077h16.308a2.038 2.038 0 1 0 0-4.077"></path>
    <path fill="#ffffff" d="M26.037 69.519H13.806a2.038 2.038 0 1 0 0 4.077h12.23a2.038 2.038 0 1 0 0-4.077M66.807 8.364a2.038 2.038 0 0 0-2.039 2.038v12.231a2.038 2.038 0 1 0 4.077 0v-12.23a2.038 2.038 0 0 0-2.038-2.04"></path>
    <path fill="#ffffff" d="M126.427 127.433c-4.218-4.76-5.963-12.9-7.67-21.75.02-.521.042-1.04.042-1.567V69.574c0-26.462-21.452-47.915-47.915-47.915-26.464 0-47.915 21.453-47.915 47.915v34.542c0 26.462 21.45 47.915 47.915 47.915.377 0 .75-.02 1.125-.028 26.59 1.392 45.601-17.536 54.418-24.57"></path>
    <path fill="#ffffff" d="M104.67 115.974 90.286 97.483c-4.411-5.67-12.174-7.092-16.742-2.414l-5.514 5.651c-4.569 4.68-2.956 12.404 2.819 16.677l18.838 13.93c3.053 2.256 7.624 1.573 10.467-1.34l3.433-3.517c2.844-2.91 3.417-7.497 1.083-10.496"></path>
    <circle r="4" fill="#ffffff" transform="matrix(2.0385 0 0 2.0385 52.537 63.403)"></circle>
</svg></svg>